<mxfile host="65bd71144e">
    <diagram id="6ObwSw7GGpYElaVP92g4" name="Page-1">
        <mxGraphModel dx="1162" dy="991" grid="1" gridSize="10" guides="1" tooltips="1" connect="1" arrows="1" fold="1" page="1" pageScale="1" pageWidth="827" pageHeight="1169" background="#FFFDFD" math="0" shadow="0">
            <root>
                <mxCell id="0"/>
                <mxCell id="1" parent="0"/>
                <mxCell id="88" value="CMAF Chunk 1" style="rounded=0;whiteSpace=wrap;html=1;strokeColor=#2D2926;fillColor=none;strokeWidth=4;fontFamily=Open Sans;labelBackgroundColor=none;labelPosition=center;verticalLabelPosition=bottom;align=center;verticalAlign=top;fontSize=27;fontStyle=0" parent="1" vertex="1">
                    <mxGeometry x="280" y="40" width="240" height="105" as="geometry"/>
                </mxCell>
                <mxCell id="93" value="prft" style="rounded=0;whiteSpace=wrap;html=1;strokeColor=#2D2926;fillColor=#9E918A;strokeWidth=4;fontFamily=Hack;labelBackgroundColor=none;labelPosition=center;verticalLabelPosition=bottom;align=center;verticalAlign=top;fontSize=27;fontStyle=0;gradientColor=none;shadow=0;glass=0;fillStyle=hatch;fontColor=#9E918A;" parent="1" vertex="1">
                    <mxGeometry x="120" y="40" width="80" height="105" as="geometry"/>
                </mxCell>
                <mxCell id="94" value="styp" style="rounded=0;whiteSpace=wrap;html=1;strokeColor=#2D2926;fillColor=#9E918A;strokeWidth=4;fontFamily=Hack;labelBackgroundColor=none;labelPosition=center;verticalLabelPosition=bottom;align=center;verticalAlign=top;fontSize=27;fontStyle=0;gradientColor=none;shadow=0;glass=0;fillStyle=hatch;fontColor=#9E918A;" parent="1" vertex="1">
                    <mxGeometry x="40" y="40" width="80" height="105" as="geometry"/>
                </mxCell>
                <mxCell id="95" value="CMAF Chunk n" style="rounded=0;whiteSpace=wrap;html=1;strokeColor=#2D2926;fillColor=none;strokeWidth=4;fontFamily=Open Sans;labelBackgroundColor=none;labelPosition=center;verticalLabelPosition=bottom;align=center;verticalAlign=top;fontSize=27;fontStyle=0" parent="1" vertex="1">
                    <mxGeometry x="550" y="40" width="240" height="105" as="geometry"/>
                </mxCell>
                <mxCell id="96" value="&lt;span style=&quot;font-family: &amp;quot;Open Sans&amp;quot;; font-size: 28px; font-weight: 700; text-align: right;&quot;&gt;â€¦&lt;/span&gt;" style="text;html=1;strokeColor=none;fillColor=none;align=center;verticalAlign=middle;whiteSpace=wrap;rounded=0;labelBackgroundColor=none;" parent="1" vertex="1">
                    <mxGeometry x="520" y="70" width="30" height="30" as="geometry"/>
                </mxCell>
                <mxCell id="100" value="" style="rounded=0;whiteSpace=wrap;html=1;labelPosition=center;verticalLabelPosition=top;align=center;verticalAlign=bottom;strokeColor=none;fillColor=#A72B2A;fontFamily=Open Sans;labelBackgroundColor=none;" parent="1" vertex="1">
                    <mxGeometry x="345" y="45" width="10" height="95" as="geometry"/>
                </mxCell>
                <mxCell id="101" value="" style="rounded=0;whiteSpace=wrap;html=1;labelPosition=center;verticalLabelPosition=top;align=center;verticalAlign=bottom;strokeColor=none;fillColor=#E4D5D3;fontFamily=Open Sans;labelBackgroundColor=none;" parent="1" vertex="1">
                    <mxGeometry x="365" y="45" width="10" height="95" as="geometry"/>
                </mxCell>
                <mxCell id="102" value="" style="rounded=0;whiteSpace=wrap;html=1;labelPosition=center;verticalLabelPosition=top;align=center;verticalAlign=bottom;strokeColor=none;fillColor=#E4D5D3;fontFamily=Open Sans;labelBackgroundColor=none;" parent="1" vertex="1">
                    <mxGeometry x="385" y="45" width="10" height="95" as="geometry"/>
                </mxCell>
                <mxCell id="103" value="" style="rounded=0;whiteSpace=wrap;html=1;labelPosition=center;verticalLabelPosition=top;align=center;verticalAlign=bottom;strokeColor=none;fillColor=#E4D5D3;fontFamily=Open Sans;labelBackgroundColor=none;" parent="1" vertex="1">
                    <mxGeometry x="405" y="45" width="10" height="95" as="geometry"/>
                </mxCell>
                <mxCell id="104" value="" style="rounded=0;whiteSpace=wrap;html=1;labelPosition=center;verticalLabelPosition=top;align=center;verticalAlign=bottom;strokeColor=none;fillColor=#E4D5D3;fontFamily=Open Sans;labelBackgroundColor=none;" parent="1" vertex="1">
                    <mxGeometry x="425" y="45" width="10" height="95" as="geometry"/>
                </mxCell>
                <mxCell id="105" value="" style="rounded=0;whiteSpace=wrap;html=1;labelPosition=center;verticalLabelPosition=top;align=center;verticalAlign=bottom;strokeColor=none;fillColor=#E4D5D3;fontFamily=Open Sans;labelBackgroundColor=none;" parent="1" vertex="1">
                    <mxGeometry x="445" y="45" width="10" height="95" as="geometry"/>
                </mxCell>
                <mxCell id="106" value="" style="rounded=0;whiteSpace=wrap;html=1;labelPosition=center;verticalLabelPosition=top;align=center;verticalAlign=bottom;strokeColor=none;fillColor=#E4D5D3;fontFamily=Open Sans;labelBackgroundColor=none;" parent="1" vertex="1">
                    <mxGeometry x="465" y="45" width="10" height="95" as="geometry"/>
                </mxCell>
                <mxCell id="107" value="" style="rounded=0;whiteSpace=wrap;html=1;labelPosition=center;verticalLabelPosition=top;align=center;verticalAlign=bottom;strokeColor=none;fillColor=#E4D5D3;fontFamily=Open Sans;labelBackgroundColor=none;" parent="1" vertex="1">
                    <mxGeometry x="485" y="45" width="10" height="95" as="geometry"/>
                </mxCell>
                <mxCell id="108" value="" style="rounded=0;whiteSpace=wrap;html=1;labelPosition=center;verticalLabelPosition=top;align=center;verticalAlign=bottom;strokeColor=none;fillColor=#E4D5D3;fontFamily=Open Sans;labelBackgroundColor=none;" parent="1" vertex="1">
                    <mxGeometry x="505" y="45" width="10" height="95" as="geometry"/>
                </mxCell>
                <mxCell id="130" value="" style="rounded=0;whiteSpace=wrap;html=1;labelPosition=center;verticalLabelPosition=top;align=center;verticalAlign=bottom;strokeColor=none;fillColor=#E4D5D3;fontFamily=Open Sans;labelBackgroundColor=none;" parent="1" vertex="1">
                    <mxGeometry x="615" y="45" width="10" height="95" as="geometry"/>
                </mxCell>
                <mxCell id="131" value="" style="rounded=0;whiteSpace=wrap;html=1;labelPosition=center;verticalLabelPosition=top;align=center;verticalAlign=bottom;strokeColor=none;fillColor=#E4D5D3;fontFamily=Open Sans;labelBackgroundColor=none;" parent="1" vertex="1">
                    <mxGeometry x="635" y="45" width="10" height="95" as="geometry"/>
                </mxCell>
                <mxCell id="132" value="" style="rounded=0;whiteSpace=wrap;html=1;labelPosition=center;verticalLabelPosition=top;align=center;verticalAlign=bottom;strokeColor=none;fillColor=#E4D5D3;fontFamily=Open Sans;labelBackgroundColor=none;" parent="1" vertex="1">
                    <mxGeometry x="655" y="45" width="10" height="95" as="geometry"/>
                </mxCell>
                <mxCell id="133" value="" style="rounded=0;whiteSpace=wrap;html=1;labelPosition=center;verticalLabelPosition=top;align=center;verticalAlign=bottom;strokeColor=none;fillColor=#E4D5D3;fontFamily=Open Sans;labelBackgroundColor=none;" parent="1" vertex="1">
                    <mxGeometry x="675" y="45" width="10" height="95" as="geometry"/>
                </mxCell>
                <mxCell id="134" value="" style="rounded=0;whiteSpace=wrap;html=1;labelPosition=center;verticalLabelPosition=top;align=center;verticalAlign=bottom;strokeColor=none;fillColor=#E4D5D3;fontFamily=Open Sans;labelBackgroundColor=none;" parent="1" vertex="1">
                    <mxGeometry x="695" y="45" width="10" height="95" as="geometry"/>
                </mxCell>
                <mxCell id="135" value="" style="rounded=0;whiteSpace=wrap;html=1;labelPosition=center;verticalLabelPosition=top;align=center;verticalAlign=bottom;strokeColor=none;fillColor=#E4D5D3;fontFamily=Open Sans;labelBackgroundColor=none;" parent="1" vertex="1">
                    <mxGeometry x="715" y="45" width="10" height="95" as="geometry"/>
                </mxCell>
                <mxCell id="136" value="" style="rounded=0;whiteSpace=wrap;html=1;labelPosition=center;verticalLabelPosition=top;align=center;verticalAlign=bottom;strokeColor=none;fillColor=#E4D5D3;fontFamily=Open Sans;labelBackgroundColor=none;" parent="1" vertex="1">
                    <mxGeometry x="735" y="45" width="10" height="95" as="geometry"/>
                </mxCell>
                <mxCell id="137" value="" style="rounded=0;whiteSpace=wrap;html=1;labelPosition=center;verticalLabelPosition=top;align=center;verticalAlign=bottom;strokeColor=none;fillColor=#E4D5D3;fontFamily=Open Sans;labelBackgroundColor=none;" parent="1" vertex="1">
                    <mxGeometry x="755" y="45" width="10" height="95" as="geometry"/>
                </mxCell>
                <mxCell id="138" value="" style="rounded=0;whiteSpace=wrap;html=1;labelPosition=center;verticalLabelPosition=top;align=center;verticalAlign=bottom;strokeColor=none;fillColor=#E4D5D3;fontFamily=Open Sans;labelBackgroundColor=none;" parent="1" vertex="1">
                    <mxGeometry x="775" y="45" width="10" height="95" as="geometry"/>
                </mxCell>
                <mxCell id="139" value="emsg" style="rounded=0;whiteSpace=wrap;html=1;strokeColor=#2D2926;fillColor=#9E918A;strokeWidth=4;fontFamily=Hack;labelBackgroundColor=none;labelPosition=center;verticalLabelPosition=bottom;align=center;verticalAlign=top;fontSize=27;fontStyle=0;gradientColor=none;shadow=0;glass=0;fillStyle=hatch;fontColor=#9E918A;" vertex="1" parent="1">
                    <mxGeometry x="200" y="40" width="80" height="105" as="geometry"/>
                </mxCell>
            </root>
        </mxGraphModel>
    </diagram>
</mxfile>
